# xmcd CD database file
#
# Track frame offsets:
#	150
#	20737
#	38887
#	68212
#	80137
#	111637
#	135862
#
# Disc length: 2107 seconds
#
# Revision: 0
# Processed by: cddbd v1.5.1PL2 Copyright (c) Steve Scherf et al.
# Submitted via: CDex 1.51
#
DISCID=60083907
DTITLE=Roland Kirk - Rip, Rig and Panic
DYEAR=1965
DGENRE=Jazz
TTITLE0=No Tonic Pres
TTITLE1=Once In A While
TTITLE2=From Bechet, Byas, And Fats
TTITLE3=Mystical Dream
TTITLE4=Rip, Rig and Panic
TTITLE5=Black Diamond
TTITLE6=Slippery, Hippery, Flippery
EXTD=YEAR: 1965
EXTT0=
EXTT1=
EXTT2=
EXTT3=
EXTT4=
EXTT5=
EXTT6=
PLAYORDER=
